# xmcd
#
# Track frame offsets: 
#        150
#        12240
#        25305
#        38385
#        54592
#        65192
#        78642
#        92742
#        106492
#        127904
#        141704
#        153931
#        167264
#        179171
#        190614
#        202994
#        219572
#        238092
#        248818
#        261550
#
# Disc length: 3701 seconds
#
# Revision: 0
# Processed by: cddbd v1.5.2PL0 Copyright (c) Steve Scherf et al.
# Submitted via: ExactAudioCopy v0.99pb5
#
DISCID=1e0e7314
DTITLE=Various Artist - Tell It LikeIt Is - Legends Of Soul CD1
DYEAR=2009
DGENRE=Soul
TTITLE0=Sam and Dave/Soul Man
TTITLE1=Bob and Earl/Harlem Shuffle
TTITLE2=Mary Wells/My Guy
TTITLE3=Harold Melvin and Bluenotes/Wake Up Everybody
TTITLE4=Sam The Shame and The Pharoahs/Wooly Bully
TTITLE5=Ben E King/Stand By Me
TTITLE6=Martha Reeves and Vandellas/Heatwave
TTITLE7=Jimmy Ruffin/What Becomes Of The Broken Hearted
TTITLE8=Ike and Tina Turner/Nutbush City Limits
TTITLE9=Ray Charles/Baby Let Me Hold Your Hand
TTITLE10=Doris Troy/Just One Look
TTITLE11=Percy Sledge/When A Man Loves A Woman
TTITLE12=The Drifters/Under The Boardwalk
TTITLE13=Rufus Thomas/Walking The Dog
TTITLE14=Carla Thomas/BABY
TTITLE15=Ike and Tina Turner/Living For The City
TTITLE16=Freda Payne/Band Of Gold
TTITLE17=Sam and Dave/Soul Sisters
TTITLE18=Fontella Bass/Rescue Me
TTITLE19=Harold Melvin/If You Don't Know Me By Now
EXTD=
EXTT0=
EXTT1=
EXTT2=
EXTT3=
EXTT4=
EXTT5=
EXTT6=
EXTT7=
EXTT8=
EXTT9=
EXTT10=
EXTT11=
EXTT12=
EXTT13=
EXTT14=
EXTT15=
EXTT16=
EXTT17=
EXTT18=
EXTT19=
PLAYORDER=
